<?xml version="1.0" encoding="UTF-8"?>
<svg id="Layer_1" data-name="Layer 1" xmlns="http://www.w3.org/2000/svg" viewBox="0 0 250 250">
  <defs>
    <style>
      .cls-1 {
        fill: none;
        stroke: #fff;
        stroke-linejoin: round;
        stroke-width: 9px;
      }
    </style>
  </defs>
  <polygon class="cls-1" points="27.08 174.49 27.08 75.83 77.98 103.2 77.98 142.25 92.79 148.46 92.79 116.88 99.73 113.6 125.52 125 125.61 225 27.08 174.49"/>
  <polygon class="cls-1" points="224.88 174.33 125.61 225 125.52 125 151.56 112.78 158.43 115.88 159.31 148.46 173.05 143.24 173.05 103.2 224.13 75.36 224.88 174.33"/>
  <polygon class="cls-1" points="99.73 113.6 125.98 101.21 151.56 112.78 125.52 125 99.73 113.6"/>
  <polygon class="cls-1" points="26.89 75.03 125.62 25.79 125.71 81.11 77.35 103.21 26.89 75.03"/>
  <polygon class="cls-1" points="125.62 81.36 173.05 103.2 224.13 75.36 125.82 26.04 125.62 81.36"/>
</svg>